<?xml version="1.0" encoding="UTF-8"?>
<svg width="260mm" height="100mm" version="1.1" viewBox="0 0 260 100" xmlns="http://www.w3.org/2000/svg">
<text x="67.744087" y="84.680107" font-family="Rubik" font-size="10.583px" stroke-width=".26458" style="line-height:1.25" xml:space="preserve"><tspan x="67.744087" y="84.680107" stroke-width=".26458"/></text>
<g stroke-width=".17081" aria-label="Pear PROGRAMMING">
<path d="m105.86 64.342q-0.71013 0-1.162-0.4519-0.4519-0.4519-0.4519-1.162v-41.962q0-0.71013 0.4519-1.162 0.4519-0.4519 1.162-0.4519h18.076q5.3582 0 9.2962 1.6785 4.0025 1.6139 6.1975 4.9063 2.2595 3.2924 2.2595 8.3279 0 4.9709-2.2595 8.1988-2.1949 3.2279-6.1975 4.7772-3.938 1.5494-9.2962 1.5494h-7.6823v14.138q0 0.71013-0.51645 1.162-0.4519 0.4519-1.162 0.4519zm10.2-24.661h7.5532q2.776 0 4.3899-1.4203 1.6785-1.4203 1.6785-4.3253 0-2.4532-1.4203-4.1317-1.4202-1.6785-4.6481-1.6785h-7.5532z"/>
<path d="m162.25 64.988q-7.6177 0-12.137-4.1317t-4.7127-12.266q0-0.4519 0-1.162t0-1.0975q0.19367-5.1 2.2595-8.7152 2.1304-3.6798 5.8101-5.5519 3.7443-1.9367 8.7152-1.9367 5.681 0 9.3608 2.2595 3.7443 2.2595 5.6165 6.1329 1.8722 3.8734 1.8722 8.8443v1.5494q0 0.71013-0.51646 1.162-0.4519 0.4519-1.0975 0.4519h-20.658q0 0.06456 0 0.19367 0 0.12911 0 0.25823 0.0646 1.8722 0.64557 3.4215 0.58101 1.5494 1.8076 2.4532 1.2266 0.9038 2.9696 0.9038 1.2911 0 2.1304-0.38734 0.9038-0.4519 1.4848-0.96836 0.58102-0.58101 0.9038-0.96836 0.58102-0.64557 0.9038-0.77468 0.38735-0.19367 1.162-0.19367h8.0051q0.64557 0 1.0329 0.38734 0.4519 0.32278 0.38735 0.96836-0.0646 1.0975-1.0975 2.6468-1.0329 1.5494-3.0342 3.0987-1.9367 1.4848-4.9063 2.4532-2.9696 0.96836-6.9076 0.96836zm-5.4874-20.852h10.91v-0.12912q0-2.0658-0.64557-3.6152-0.58102-1.5494-1.8722-2.3886-1.2266-0.83924-2.9696-0.83924-1.743 0-2.9696 0.83924-1.162 0.83924-1.8076 2.3886t-0.64557 3.6152z"/>
<path d="m195.18 64.988q-3.4861 0-6.262-1.2911-2.7114-1.3557-4.3253-3.6152-1.6139-2.2595-1.6139-5.1 0-4.5836 3.7443-7.2304 3.7443-2.7114 9.9418-3.6798l8.0696-1.2266v-0.9038q0-2.3241-0.96836-3.5506t-3.5506-1.2266q-1.8076 0-2.9696 0.71013-1.0975 0.71013-1.743 1.9367-0.58101 0.83924-1.6139 0.83924h-7.2304q-0.71013 0-1.0975-0.38734-0.38734-0.4519-0.32279-1.0329 0-1.162 0.83924-2.6468 0.9038-1.5494 2.7114-3.0342 1.8076-1.4848 4.6481-2.4532 2.8405-0.96836 6.8431-0.96836 4.1962 0 7.1658 0.96836 2.9696 0.96836 4.7772 2.7114 1.8722 1.743 2.776 4.1317 0.9038 2.3241 0.9038 5.1646v19.625q0 0.71013-0.51645 1.162-0.4519 0.4519-1.0975 0.4519h-7.4886q-0.71012 0-1.162-0.4519-0.4519-0.4519-0.4519-1.162v-2.2595q-0.83925 1.2266-2.2595 2.2595-1.4203 1.0329-3.357 1.6139-1.8722 0.64557-4.3899 0.64557zm3.0342-7.3595q1.8722 0 3.357-0.77468 1.5494-0.83924 2.3886-2.5177 0.9038-1.743 0.9038-4.3253v-0.9038l-5.4874 0.96836q-3.0342 0.51646-4.4544 1.6139-1.3557 1.0329-1.3557 2.4532 0 1.0975 0.64557 1.8722t1.6785 1.2266q1.0329 0.38734 2.3241 0.38734z"/>
<path d="m224.81 64.342q-0.71013 0-1.162-0.4519-0.4519-0.4519-0.4519-1.162v-30.342q0-0.64557 0.4519-1.0975 0.4519-0.51646 1.162-0.51646h7.4241q0.71013 0 1.162 0.51646 0.4519 0.4519 0.4519 1.0975v2.5823q1.743-2.0013 4.1316-3.0987 2.4532-1.0975 5.4874-1.0975h2.8405q0.64557 0 1.0975 0.4519 0.51646 0.4519 0.51646 1.162v6.6494q0 0.64557-0.51646 1.162-0.4519 0.4519-1.0975 0.4519h-6.262q-2.6468 0-4.1316 1.4848-1.4203 1.4203-1.4203 4.0671v16.527q0 0.71013-0.51646 1.162-0.4519 0.4519-1.162 0.4519z"/>
<path d="m104.56 80.654q-0.21304 0-0.34861-0.13557-0.13557-0.13557-0.13557-0.34861v-12.589q0-0.21304 0.13557-0.34861 0.13557-0.13557 0.34861-0.13557h5.2872q1.5687 0 2.7114 0.48418 1.162 0.48418 1.8011 1.4719 0.65848 0.96836 0.65848 2.4209 0 1.4719-0.65848 2.4403-0.63912 0.94899-1.8011 1.4138-1.1427 0.46481-2.7114 0.46481h-2.5952v4.377q0 0.21304-0.13557 0.34861-0.13557 0.13557-0.3486 0.13557zm2.6339-7.2627h2.5565q0.98772 0 1.53-0.48418 0.56165-0.48418 0.56165-1.4525 0-0.85215-0.50355-1.3944-0.48418-0.54228-1.5881-0.54228h-2.5565z"/>
<path d="m117.48 80.654q-0.21304 0-0.34861-0.13557-0.13557-0.13557-0.13557-0.34861v-12.589q0-0.21304 0.13557-0.34861 0.13557-0.13557 0.34861-0.13557h5.1323q2.4209 0 3.8153 1.1233 1.3944 1.1039 1.3944 3.1956 0 1.4138-0.67785 2.3628-0.67785 0.94899-1.8205 1.4138l2.7308 4.8418q0.0581 0.1162 0.0581 0.21304 0 0.15494-0.11621 0.29051-0.1162 0.1162-0.2905 0.1162h-2.1498q-0.34861 0-0.52291-0.1743-0.17431-0.19367-0.25177-0.34861l-2.3628-4.4351h-2.3434v4.4738q0 0.21304-0.13557 0.34861-0.13557 0.13557-0.34861 0.13557zm2.5952-7.4176h2.479q1.0652 0 1.5687-0.48418 0.52292-0.48418 0.52292-1.3557 0-0.87152-0.50355-1.3751-0.50354-0.50354-1.5881-0.50354h-2.479z"/>
<path d="m135.54 80.848q-1.7624 0-3.0406-0.58101t-1.9948-1.743q-0.71658-1.1814-0.77468-2.9632-0.0194-0.83279-0.0194-1.6462 0-0.83278 0.0194-1.6849 0.0581-1.743 0.77468-2.9244 0.73595-1.2008 2.0142-1.8011 1.2976-0.60038 3.0213-0.60038 1.7043 0 2.9825 0.60038 1.2976 0.60038 2.0335 1.8011 0.73595 1.1814 0.77469 2.9244 0.0387 0.85215 0.0387 1.6849 0 0.81342-0.0387 1.6462-0.0581 1.7818-0.77469 2.9632-0.71658 1.162-1.9948 1.743t-3.0213 0.58101zm0-2.4984q1.1233 0 1.8399-0.67785 0.73595-0.69722 0.77468-2.2078 0.0387-0.85215 0.0387-1.5881 0-0.75532-0.0387-1.5881-0.0194-1.0071-0.36797-1.6462-0.34861-0.63911-0.92962-0.92962-0.56165-0.30987-1.317-0.30987-0.75532 0-1.3363 0.30987-0.58102 0.29051-0.92962 0.92962-0.32925 0.63912-0.36798 1.6462-0.0194 0.83278-0.0194 1.5881 0 0.73595 0.0194 1.5881 0.0581 1.5106 0.77468 2.2078 0.71659 0.67785 1.8592 0.67785z"/>
<path d="m149.21 80.848q-1.8205 0-3.1181-0.60038-1.2782-0.61975-1.9948-1.7818-0.69721-1.1814-0.75531-2.847-0.0194-0.83278-0.0194-1.7818t0.0194-1.8011q0.0581-1.6268 0.75531-2.7695 0.71659-1.1427 2.0142-1.743 1.317-0.61975 3.0987-0.61975 1.4332 0 2.5177 0.36798t1.8205 0.96836q0.73595 0.58101 1.1233 1.2782 0.38734 0.69722 0.40671 1.3363 0 0.1743-0.1162 0.30987-0.11621 0.1162-0.30988 0.1162h-2.4015q-0.19367 0-0.30987-0.07747-0.0968-0.07747-0.1743-0.2324-0.13557-0.34861-0.44545-0.69722-0.2905-0.36797-0.79405-0.61975-0.50354-0.25177-1.317-0.25177-1.2201 0-1.9367 0.63911-0.69722 0.63912-0.75532 2.0916-0.0581 1.6656 0 3.3892 0.0581 1.5106 0.77469 2.1691 0.73595 0.65848 1.9561 0.65848 0.79405 0 1.4138-0.27114 0.63912-0.29051 1.0071-0.89089 0.36798-0.60038 0.36798-1.53v-0.48418h-2.111q-0.19367 0-0.32924-0.13557-0.13557-0.15494-0.13557-0.34861v-1.2395q0-0.21304 0.13557-0.34861t0.32924-0.13557h4.7449q0.21304 0 0.34861 0.13557t0.13557 0.34861v2.111q0 1.6656-0.73595 2.847-0.71658 1.1814-2.0723 1.8205-1.3363 0.61975-3.1375 0.61975z"/>
<path d="m158.01 80.654q-0.21304 0-0.34861-0.13557-0.13557-0.13557-0.13557-0.34861v-12.589q0-0.21304 0.13557-0.34861 0.13557-0.13557 0.34861-0.13557h5.1323q2.4209 0 3.8153 1.1233 1.3944 1.1039 1.3944 3.1956 0 1.4138-0.67785 2.3628-0.67785 0.94899-1.8205 1.4138l2.7308 4.8418q0.0581 0.1162 0.0581 0.21304 0 0.15494-0.1162 0.29051-0.1162 0.1162-0.2905 0.1162h-2.1498q-0.34861 0-0.52291-0.1743-0.17431-0.19367-0.25178-0.34861l-2.3628-4.4351h-2.3434v4.4738q0 0.21304-0.13557 0.34861-0.13557 0.13557-0.34861 0.13557zm2.5952-7.4176h2.479q1.0652 0 1.5687-0.48418 0.52291-0.48418 0.52291-1.3557 0-0.87152-0.50354-1.3751-0.50355-0.50354-1.5881-0.50354h-2.479z"/>
<path d="m169.94 80.654q-0.1743 0-0.2905-0.1162-0.11621-0.13557-0.11621-0.29051 0-0.09684 0.0194-0.1743l4.6093-12.453q0.0581-0.21304 0.2324-0.36798 0.17431-0.15494 0.48418-0.15494h2.479q0.30987 0 0.48418 0.15494 0.1743 0.15494 0.2324 0.36798l4.6094 12.453q0.0194 0.07747 0.0194 0.1743 0 0.15494-0.1162 0.29051-0.1162 0.1162-0.29051 0.1162h-2.0142q-0.2905 0-0.42607-0.13557-0.13557-0.13557-0.17431-0.25177l-0.83278-2.1691h-5.4615l-0.83279 2.1691q-0.0387 0.1162-0.1743 0.25177-0.13557 0.13557-0.42608 0.13557zm4.1639-5.0548h4.009l-1.9948-5.5777z"/>
<path d="m184.85 80.654q-0.19368 0-0.34861-0.13557-0.13557-0.13557-0.13557-0.34861v-12.589q0-0.21304 0.13557-0.34861 0.15493-0.13557 0.34861-0.13557h1.8011q0.2905 0 0.42607 0.15494 0.15494 0.15494 0.21304 0.2324l3.5636 6.5654 3.6023-6.5654q0.0387-0.07747 0.1743-0.2324 0.15494-0.15494 0.44544-0.15494h1.8011q0.21304 0 0.34861 0.13557 0.13557 0.13557 0.13557 0.34861v12.589q0 0.21304-0.13557 0.34861-0.13557 0.13557-0.34861 0.13557h-1.9754q-0.19367 0-0.32924-0.13557-0.13557-0.13557-0.13557-0.34861v-7.8243l-2.4596 4.6094q-0.0968 0.1743-0.25177 0.30987-0.15494 0.13557-0.40671 0.13557h-0.91026q-0.25177 0-0.40671-0.13557-0.15493-0.13557-0.25177-0.30987l-2.4596-4.6094v7.8243q0 0.21304-0.13557 0.34861-0.13557 0.13557-0.32924 0.13557z"/>
<path d="m200.71 80.654q-0.19367 0-0.34861-0.13557-0.13557-0.13557-0.13557-0.34861v-12.589q0-0.21304 0.13557-0.34861 0.15494-0.13557 0.34861-0.13557h1.8011q0.29051 0 0.42608 0.15494 0.15493 0.15494 0.21303 0.2324l3.5636 6.5654 3.6023-6.5654q0.0387-0.07747 0.1743-0.2324 0.15494-0.15494 0.44545-0.15494h1.8011q0.21304 0 0.34861 0.13557 0.13557 0.13557 0.13557 0.34861v12.589q0 0.21304-0.13557 0.34861-0.13557 0.13557-0.34861 0.13557h-1.9754q-0.19367 0-0.32924-0.13557-0.13557-0.13557-0.13557-0.34861v-7.8243l-2.4596 4.6094q-0.0968 0.1743-0.25177 0.30987-0.15494 0.13557-0.40671 0.13557h-0.91025q-0.25178 0-0.40671-0.13557-0.15494-0.13557-0.25177-0.30987l-2.4596-4.6094v7.8243q0 0.21304-0.13557 0.34861-0.13557 0.13557-0.32924 0.13557z"/>
<path d="m216.57 80.654q-0.21304 0-0.34861-0.13557-0.13557-0.13557-0.13557-0.34861v-12.589q0-0.21304 0.13557-0.34861 0.13557-0.13557 0.34861-0.13557h2.1885q0.21304 0 0.34861 0.13557 0.13557 0.13557 0.13557 0.34861v12.589q0 0.21304-0.13557 0.34861-0.13557 0.13557-0.34861 0.13557z"/>
<path d="m222.6 80.654q-0.21304 0-0.34861-0.13557-0.13557-0.13557-0.13557-0.34861v-12.589q0-0.21304 0.13557-0.34861 0.13557-0.13557 0.34861-0.13557h1.7624q0.2905 0 0.42607 0.13557 0.13557 0.13557 0.17431 0.21304l5.171 8.0761v-7.9405q0-0.21304 0.13557-0.34861 0.13557-0.13557 0.32924-0.13557h1.9754q0.21304 0 0.34861 0.13557 0.13556 0.13557 0.13556 0.34861v12.589q0 0.19367-0.13556 0.34861-0.13557 0.13557-0.34861 0.13557h-1.7818q-0.2905 0-0.42607-0.13557-0.1162-0.15494-0.17431-0.21304l-5.1516-7.8243v7.6887q0 0.21304-0.13557 0.34861-0.13557 0.13557-0.34861 0.13557z"/>
<path d="m241.36 80.848q-1.8205 0-3.1181-0.60038-1.2782-0.61975-1.9948-1.7818-0.69722-1.1814-0.75532-2.847-0.0194-0.83278-0.0194-1.7818t0.0194-1.8011q0.0581-1.6268 0.75532-2.7695 0.71658-1.1427 2.0142-1.743 1.317-0.61975 3.0987-0.61975 1.4332 0 2.5177 0.36798 1.0846 0.36798 1.8205 0.96836 0.73595 0.58101 1.1233 1.2782 0.38734 0.69722 0.40671 1.3363 0 0.1743-0.1162 0.30987-0.1162 0.1162-0.30988 0.1162h-2.4015q-0.19367 0-0.30987-0.07747-0.0968-0.07747-0.1743-0.2324-0.13557-0.34861-0.44545-0.69722-0.2905-0.36797-0.79405-0.61975-0.50354-0.25177-1.317-0.25177-1.2201 0-1.9367 0.63911-0.69722 0.63912-0.75532 2.0916-0.0581 1.6656 0 3.3892 0.0581 1.5106 0.77469 2.1691 0.73595 0.65848 1.9561 0.65848 0.79405 0 1.4138-0.27114 0.63912-0.29051 1.0071-0.89089 0.36798-0.60038 0.36798-1.53v-0.48418h-2.111q-0.19367 0-0.32924-0.13557-0.13557-0.15494-0.13557-0.34861v-1.2395q0-0.21304 0.13557-0.34861t0.32924-0.13557h4.7449q0.21304 0 0.34861 0.13557t0.13557 0.34861v2.111q0 1.6656-0.73595 2.847-0.71658 1.1814-2.0723 1.8205-1.3363 0.61975-3.1375 0.61975z"/>
</g>
<g transform="matrix(1.0096 0 0 1.0096 -.46327 2.3057)">
<path d="m51.203 87.629c11.748 3.1476 25.594-1.5363 30.629-8.5811s1.2604-16.45-0.29477-26.31-0.89001-20.174-2.2529-26.835c-1.3629-6.661-4.754-9.6681-9.6491-10.98-4.895-1.3118-11.293-0.92771-15.804 4.1595-4.5111 5.0872-7.1341 14.877-12.432 22.9-5.2979 8.0239-13.27 14.282-12.431 22.901 0.83859 8.6191 10.488 19.598 22.235 22.746z" fill="#699" fill-opacity=".7"/>
<path d="m66.637 14.377c0.828-1.5213 1.656-3.0426 1.0274-4.6599-0.6286-1.6173-2.7141-3.3306-3.2234-4.4456-0.50931-1.115 0.55778-1.6313 1.8401-0.83939 1.2823 0.79192 2.7797 2.8917 3.184 4.8139 0.40433 1.9222-0.28412 3.667-0.97252 5.4117" fill-opacity=".5"/>
<path d="m44.124 90c-11.977 2.1118-25.362-3.7611-29.765-11.218-4.4024-7.4569 0.1781-16.497 2.5868-26.185 2.4087-9.6872 2.6449-20.02 4.5832-26.537 1.9382-6.5169 5.5786-9.217 10.569-10.097s11.331 0.06009 15.382 5.5211c4.0505 5.461 5.8104 15.442 10.389 23.897 4.5784 8.4551 11.975 15.384 10.388 23.897s-12.156 18.61-24.133 20.722z" fill="#75bcbc" fill-opacity=".70196"/>
<path d="m34.571 15.699c-0.50119-1.4568-1.0024-2.9137-0.56534-4.4385 0.43707-1.5248 1.8123-3.1172 1.9861-4.2496 0.17384-1.1324-0.85396-1.8033-1.7944-1.0631-0.94048 0.74016-1.7924 2.8915-2.0044 4.7769-0.21198 1.8854 0.21586 3.5049 0.64366 5.1243" fill-opacity=".5"/>
</g>
</svg>
