<?xml version="1.0" encoding="UTF-8"?>
<svg enable-background="new 0 0 331.37 331.37" version="1.1" viewBox="0 0 331.37 331.37" xml:space="preserve" xmlns="http://www.w3.org/2000/svg">
				<path d="m111.37 188.96c0 4.956-4.055 9.01-9.01 9.01h-45.051c-4.955 0-9.01-4.055-9.01-9.01v-30.113c0-4.956 4.055-9.01 9.01-9.01h45.051c4.956 0 9.01 4.055 9.01 9.01v30.113z"/>
				<path d="m111.37 268.09c0 4.956-4.055 9.01-9.01 9.01h-45.051c-4.955 0-9.01-4.055-9.01-9.01v-30.113c0-4.956 4.055-9.01 9.01-9.01h45.051c4.956 0 9.01 4.055 9.01 9.01v30.113z"/>
				<path d="m197.22 188.96c0 4.956-4.055 9.01-9.01 9.01h-45.052c-4.956 0-9.01-4.055-9.01-9.01v-30.113c0-4.956 4.055-9.01 9.01-9.01h45.052c4.956 0 9.01 4.055 9.01 9.01v30.113z"/>
				<path d="m197.22 268.09c0 4.956-4.055 9.01-9.01 9.01h-45.052c-4.956 0-9.01-4.055-9.01-9.01v-30.113c0-4.956 4.055-9.01 9.01-9.01h45.052c4.956 0 9.01 4.055 9.01 9.01v30.113z"/>
				<path d="m282.02 188.96c0 4.956-4.055 9.01-9.01 9.01h-45.052c-4.956 0-9.01-4.055-9.01-9.01v-30.113c0-4.956 4.055-9.01 9.01-9.01h45.052c4.956 0 9.01 4.055 9.01 9.01v30.113z"/>
				<path d="m282.02 268.09c0 4.956-4.055 9.01-9.01 9.01h-45.052c-4.956 0-9.01-4.055-9.01-9.01v-30.113c0-4.956 4.055-9.01 9.01-9.01h45.052c4.956 0 9.01 4.055 9.01 9.01v30.113z"/>
			<path d="m70.786 82.453c-5.383 0-9.787-4.404-9.787-9.788v-52.968c0-5.384 4.404-9.788 9.787-9.788h20.361c5.383 0 9.788 4.404 9.788 9.788v52.968c0 5.383-4.404 9.788-9.788 9.788h-20.361z"/>
			<path d="m240.3 82.453c-5.383 0-9.787-4.404-9.787-9.788v-52.968c0-5.384 4.404-9.788 9.787-9.788h20.361c5.383 0 9.788 4.404 9.788 9.788v52.968c0 5.383-4.404 9.788-9.788 9.788h-20.361z"/>
			<path d="m321.92 49.935h-28.491c-1.628 0-4.64 0-4.64 3.753v16.754c0 15.996-8.86 29.01-29.01 29.01h-18.745c-19.106 0-29.01-13.014-29.01-29.01l1e-3 -15.879c0-3-2.096-4.628-4.596-4.628h-82.751c-1.836 0-5.326 0-5.326 4.753v15.754c0 15.996-7.976 29.01-29.01 29.01h-18.745c-23.292 0-29.01-13.014-29.01-29.01v-15.129c0-4.25-3.826-5.378-5.909-5.378h-27.221c-5.2 0-9.454 4.254-9.454 16.458v252.62c0-1.804 4.254 2.45 9.454 2.45h312.46c5.2 0 9.454-4.254 9.454-2.45v-252.62c0-12.204-4.254-16.458-9.453-16.458zm-11.555 241.06c0 5.2-4.254 9.454-9.454 9.454h-270.44c-5.2 0-9.454-4.254-9.454-9.454v-156.53c0-5.2 4.254-9.454 9.454-9.454h270.44c5.2 0 9.454 4.254 9.454 9.454v156.53z"/>
</svg>
