<?xml version="1.0" encoding="UTF-8"?>
<svg width="459.56px" height="459.56px" enable-background="new 0 0 459.562 459.562" version="1.1" viewBox="0 0 459.562 459.562" xml:space="preserve" xmlns="http://www.w3.org/2000/svg">
<g>
	<path d="m229.78 0c-81.569 0-147.93 63.047-147.93 140.54 0 54.028 20.928 84.706 41.178 114.39 16.882 24.736 34.339 50.313 35.394 84.912 0.26 8.539 6.353 15.552 14.384 17.289-7.475 2.291-12.912 9.244-12.912 17.47 0 7.247 4.23 13.489 10.347 16.442-6.116 2.954-10.347 9.196-10.347 16.444 0 10.091 8.18 18.271 18.271 18.271h11.167c3.45 19.216 20.24 33.801 40.448 33.801s37-14.585 40.449-33.801h11.166c10.092 0 18.271-8.181 18.271-18.271 0-7.248-4.23-13.49-10.348-16.444 6.117-2.953 10.348-9.195 10.348-16.442 0-8.189-5.389-15.12-12.812-17.44 8.025-1.742 14.113-8.752 14.375-17.288 1.053-34.586 18.482-60.163 35.354-84.922 20.221-29.668 41.127-60.346 41.127-114.41-1e-3 -77.497-66.36-140.54-147.93-140.54zm76.59 234.4c-15.518 22.771-34.314 50.355-40.014 86.645l-18.83-5e-3 26.897-153.13c0.015-0.083 0.028-0.166 0.042-0.249 1.43-9.385-1.296-18.896-7.479-26.093-5.983-6.964-14.709-11.121-23.342-11.121-4.852 0-9.609 1.318-13.877 3.762-4.269-2.444-9.024-3.762-13.877-3.762-8.559 0-16.967 4.064-23.071 11.15-6.308 7.324-9.134 16.813-7.753 26.035 0.014 0.093 0.029 0.185 0.045 0.277l26.897 153.12-18.714-6e-3c-5.705-36.312-24.54-63.911-40.091-86.696-18.68-27.382-34.812-51.029-34.812-93.78 0-57.347 49.968-104 111.39-104 61.419 0 111.39 46.654 111.39 104 1e-3 42.794-16.118 66.444-34.797 93.853zm-76.603 58.872l-22.669-129.05c-0.537-3.92 1.643-6.947 2.612-8.071 1.783-2.069 4.208-3.406 6.18-3.406 2.472 0 4.369 1.851 5.28 2.953 2.118 2.566 5.27 4.051 8.597 4.051 3.326 0 6.479-1.485 8.597-4.051 0.912-1.103 2.809-2.953 5.281-2.953 2.189 0 4.653 1.286 6.43 3.354 1.133 1.319 2.936 4.115 2.365 8.103l-22.673 129.07z"/>
</g>
</svg>
