<?xml version="1.0" encoding="UTF-8"?>
<svg width="200mm" height="200mm" version="1.1" viewBox="0 0 200 200" xmlns="http://www.w3.org/2000/svg">
<g>
<path d="m89.776 95.019c-4.8525 2.5761-10.416 4.1064-15.861 3.3769-2.7226-0.36476-5.3819-1.2977-7.6669-2.8223s-4.1855-3.6497-5.3328-6.1456c-0.95761-2.0834-1.3805-4.385-1.4525-6.6769-0.07202-2.2918 0.19799-4.5818 0.57587-6.8434 0.75576-4.5232 1.9495-9.0353 1.7301-13.616-0.12854-2.6841-0.74116-5.3194-1.0696-7.9864-0.32845-2.667-0.35757-5.453 0.63419-7.9504 0.64357-1.6206 1.7085-3.0702 3.055-4.1782 1.3464-1.108 2.9709-1.8732 4.6803-2.2176 3.4188-0.68885 7.1262 0.3852 9.7082 2.7295 2.2156 2.0117 3.5598 4.795 4.6761 7.5716 1.1163 2.7766 2.0752 5.6525 3.7277 8.1475 2.0019 3.0224 4.9023 5.3104 7.595 7.7377 2.6927 2.4273 5.3016 5.1737 6.4085 8.6258 0.64291 2.0051 0.74026 4.1706 0.37157 6.2437s-1.196 4.054-2.3327 5.8264c-2.2735 3.5448-5.7276 6.2028-9.4472 8.1775z" fill="#a3a3a3" stroke="#505050" stroke-width="2.5208"/>
<path d="m71.09 40.484-0.45194-3.3032-7.1197-5.8479" fill="none" stroke="#505050" stroke-width="2.5208"/>
<path d="m68.972 33.766s1.9392-13.123 14.047-6.8021c0 0-2.2163 7.8574-14.047 6.8021z" fill="#a3a3a3" stroke="#505050" stroke-width="2.5208"/>
<path d="m34.035 81.416a47.077 47.077 0 0 1 25.87 -61.31 47.077 47.077 0 0 1 61.335 25.808 47.077 47.077 0 0 1 -25.747 61.361 47.077 47.077 0 0 1 -61.387 -25.686" fill="none" stroke="#505050" stroke-linecap="square" stroke-width="8"/>
<rect transform="rotate(-45)" x="8.2711" y="150.48" width=".9911" height="22.465" fill="none" stroke="#505050" stroke-linecap="square" stroke-width="8"/>
<rect transform="rotate(-45)" x="4.3067" y="173.15" width="8.9199" height="50.877" fill="#343434" stroke="#343434" stroke-linecap="square" stroke-width="8"/>
<text x="34.143555" y="178.94128" fill="#505050" font-family="sans-serif" font-size="25.4px" stroke-width=".26458" style="line-height:1.25" xml:space="preserve"><tspan x="34.143555" y="178.94128" fill="#505050" font-family="'Tw Cen MT'" font-size="25.4px" font-weight="bold" stroke-width=".26458">No Results...</tspan></text>
</g>
</svg>
