<?xml version="1.0" encoding="UTF-8"?>
<svg width="610.63px" height="610.63px" enable-background="new 0 0 610.633 610.633" version="1.1" viewBox="0 0 610.633 610.633" xml:space="preserve" xmlns="http://www.w3.org/2000/svg">
<g>
	<g>
		<polygon points="553.94 473.34 418.29 473.34 418.29 610.63"/>
		<path d="m553.94 38.164c0-21.095-17.069-38.164-38.164-38.164h-420.92c-21.075 0-38.164 17.069-38.164 38.164v534.3c0 21.095 17.088 38.164 38.164 38.164h284.61v-161.24c0-10.548 8.534-19.082 19.082-19.082h155.39v-392.15zm-439.88 57.461h191.25v43.031h-191.25v-43.031zm0 119.53h191.25v43.031h-191.25v-43.031zm191.25 282.09h-191.25v-43.031h191.25v43.031zm181.69-119.53h-372.94v-43.031h372.94v43.031zm0-119.53h-119.53v-162.56h119.53v162.56z"/>
	</g>
</g>
</svg>
