<?xml version="1.0" encoding="UTF-8"?>
<svg viewBox="0 0 24 24" xmlns="http://www.w3.org/2000/svg">
<path d="m7.6534 21.126c-0.36005 0.52781-0.96624 0.87432-1.6534 0.87432h-2c-1.1046 0-2-0.89543-2-2v-9c0-1.1046 0.89543-2 2-2h2c0.19817 0 0.38961 0.028822 0.57035 0.082503 1.0741-1.5644 4.6851-5.508 5.6499-6.7095l0.30023-0.37388h0.4795c0.6148-9.224e-5 1.1423 0.046028 1.7483 0.22249 1.3436 0.39123 2.2517 1.3055 2.2517 2.7775 0 0.52011-0.092099 1.0746-0.26178 1.6901-0.11226 0.40723-0.25101 0.81843-0.44115 1.3288-0.057919 0.15546-0.28988 0.76367-0.34229 0.90537-0.0095957 0.025947-0.018864 0.051181-0.027814 0.075727h3.073c1.8696 0 3 1.3175 3 3 0 5.9436-1.2449 10-4 10l-6.9656-5.919e-4c-0.69355 0.012681-1.529-0.079856-2.3713-0.38123-0.3679-0.13163-0.70639-0.2954-1.0098-0.49161zm0.34663-3.1266c0 0.90223 0.45197 1.4185 1.3369 1.7351 0.57375 0.20528 1.1885 0.27338 1.6262 0.26553 0.0072839-1.598e-4 0.0072839-1.598e-4 0.036934-6.089e-4h7c1.0151 0 2-3.2093 2-8 0-0.64011-0.30878-1-1-1h-4c-1.1945 0-1.4445-0.92365-1.1953-1.9237 0.058601-0.23525 0.14427-0.49414 0.27431-0.84576 0.056844-0.15371 0.28997-0.76495 0.34396-0.90989 0.17149-0.46029 0.29323-0.82109 0.38722-1.1621 0.12579-0.45629 0.18985-0.84202 0.18985-1.1586 0-0.45097-0.23782-0.6904-0.81087-0.85727-0.24076-0.070106-0.47774-0.10875-0.72917-0.1276-1.5457 1.8477-5.0533 5.6863-5.3183 6.3049-0.097279 0.22713-0.14171 0.43982-0.14171 0.68002v7zm-4-6.9991v9h2v-9h-2z" fill-rule="evenodd"/>
</svg>
