<?xml version="1.0" encoding="UTF-8"?>
<svg width="100mm" height="100mm" version="1.1" viewBox="0 0 100 100" xmlns="http://www.w3.org/2000/svg">
<text x="67.744087" y="84.680107" font-family="Rubik" font-size="10.583px" stroke-width=".26458" style="line-height:1.25" xml:space="preserve"><tspan x="67.744087" y="84.680107" stroke-width=".26458"/></text>
<g transform="matrix(.29644 -.42336 .42336 .29644 8.9268 58.784)" fill-opacity=".08">
<path d="m51.388 93.09c12.534 3.3583 27.307-1.6392 32.68-9.1556s1.3448-17.551-0.3145-28.072c-1.6593-10.52-0.94959-21.525-2.4037-28.632-1.4541-7.1069-5.0723-10.315-10.295-11.715s-12.049-0.98982-16.862 4.4379c-4.8131 5.4277-7.6117 15.872-13.264 24.433s-14.158 15.238-13.264 24.434 11.19 20.91 23.724 24.269z"/>
<path d="m67.855 14.934c0.88344-1.6231 1.7669-3.2462 1.0962-4.9718-0.67068-1.7256-2.8958-3.5536-3.4392-4.7432-0.5434-1.1896 0.59512-1.7405 1.9633-0.89559 1.3682 0.84494 2.9658 3.0853 3.3972 5.1362 0.43139 2.0509-0.30314 3.9125-1.0376 5.774"/>
</g>
</svg>
